<svg aria-roledescription="er" viewBox="0 0 1111.3974609375 1064" style="max-width: 1111.3974609375px;" xmlns="http://www.w3.org/2000/svg" width="undefined" id="mermaid-svg" height="undefined"><style>#mermaid-svg{font-family:"trebuchet ms",verdana,arial,sans-serif;font-size:16px;fill:#333;}#mermaid-svg .error-icon{fill:#552222;}#mermaid-svg .error-text{fill:#552222;stroke:#552222;}#mermaid-svg .edge-thickness-normal{stroke-width:2px;}#mermaid-svg .edge-thickness-thick{stroke-width:3.5px;}#mermaid-svg .edge-pattern-solid{stroke-dasharray:0;}#mermaid-svg .edge-pattern-dashed{stroke-dasharray:3;}#mermaid-svg .edge-pattern-dotted{stroke-dasharray:2;}#mermaid-svg .marker{fill:#333333;stroke:#333333;}#mermaid-svg .marker.cross{stroke:#333333;}#mermaid-svg svg{font-family:"trebuchet ms",verdana,arial,sans-serif;font-size:16px;}#mermaid-svg .entityBox{fill:#ECECFF;stroke:#9370DB;}#mermaid-svg .attributeBoxOdd{fill:#ffffff;stroke:#9370DB;}#mermaid-svg .attributeBoxEven{fill:#f2f2f2;stroke:#9370DB;}#mermaid-svg .relationshipLabelBox{fill:hsl(80, 100%, 96.2745098039%);opacity:0.7;background-color:hsl(80, 100%, 96.2745098039%);}#mermaid-svg .relationshipLabelBox rect{opacity:0.5;}#mermaid-svg .relationshipLine{stroke:#333333;}#mermaid-svg .entityTitleText{text-anchor:middle;font-size:18px;fill:#333;}#mermaid-svg :root{--mermaid-font-family:"trebuchet ms",verdana,arial,sans-serif;}</style><g></g><defs><marker orient="auto" markerHeight="18" markerWidth="18" refY="9" refX="0" id="ONLY_ONE_START"><path d="M9,0 L9,18 M15,0 L15,18" fill="none" stroke="gray"></path></marker></defs><defs><marker orient="auto" markerHeight="18" markerWidth="18" refY="9" refX="18" id="ONLY_ONE_END"><path d="M3,0 L3,18 M9,0 L9,18" fill="none" stroke="gray"></path></marker></defs><defs><marker orient="auto" markerHeight="18" markerWidth="30" refY="9" refX="0" id="ZERO_OR_ONE_START"><circle r="6" cy="9" cx="21" fill="white" stroke="gray"></circle><path d="M9,0 L9,18" fill="none" stroke="gray"></path></marker></defs><defs><marker orient="auto" markerHeight="18" markerWidth="30" refY="9" refX="30" id="ZERO_OR_ONE_END"><circle r="6" cy="9" cx="9" fill="white" stroke="gray"></circle><path d="M21,0 L21,18" fill="none" stroke="gray"></path></marker></defs><defs><marker orient="auto" markerHeight="36" markerWidth="45" refY="18" refX="18" id="ONE_OR_MORE_START"><path d="M0,18 Q 18,0 36,18 Q 18,36 0,18 M42,9 L42,27" fill="none" stroke="gray"></path></marker></defs><defs><marker orient="auto" markerHeight="36" markerWidth="45" refY="18" refX="27" id="ONE_OR_MORE_END"><path d="M3,9 L3,27 M9,18 Q27,0 45,18 Q27,36 9,18" fill="none" stroke="gray"></path></marker></defs><defs><marker orient="auto" markerHeight="36" markerWidth="57" refY="18" refX="18" id="ZERO_OR_MORE_START"><circle r="6" cy="18" cx="48" fill="white" stroke="gray"></circle><path d="M0,18 Q18,0 36,18 Q18,36 0,18" fill="none" stroke="gray"></path></marker></defs><defs><marker orient="auto" markerHeight="36" markerWidth="57" refY="18" refX="39" id="ZERO_OR_MORE_END"><circle r="6" cy="18" cx="9" fill="white" stroke="gray"></circle><path d="M21,18 Q39,0 57,18 Q39,36 21,18" fill="none" stroke="gray"></path></marker></defs><path style="stroke: gray; fill: none;" marker-start="url(#ZERO_OR_MORE_START)" marker-end="url(#ONLY_ONE_END)" d="M156.79995155334473,817.9677390125585L142.3332929611206,828.7064494314451C127.86663436889648,839.445159850332,98.93331718444824,860.9225806881054,84.46665859222412,881.8279577736588C70,902.7333348592123,70,923.0666681925455,70,933.2333348592123L70,943.4000015258789" class="er relationshipLine"></path><path style="stroke: gray; fill: none;" marker-start="url(#ZERO_OR_MORE_START)" marker-end="url(#ONLY_ONE_END)" d="M215.69224498721553,821.4000015258789L216.41020415601292,831.5666681925455C217.12816332481034,841.7333348592123,218.5640816624052,862.0666681925455,223.22028912677263,880.5666681925455C227.87649659114012,899.0666681925455,235.75299318228022,915.7333348592123,239.6912414778503,924.0666681925455L243.62948977342032,932.4000015258789" class="er relationshipLine"></path><path style="stroke: gray; fill: none;" marker-start="url(#ZERO_OR_MORE_START)" marker-end="url(#ONLY_ONE_END)" d="M268.25708198547363,787.3565227534351L350.3257013956706,803.1971025488424C432.3943208058675,819.0376823442497,596.5315596262614,850.7188419350642,717.0549399058024,881.0521174328366C837.5783201853434,911.3853929306089,914.4878419240316,940.370784335339,952.9426027933756,954.863480037704L991.3973636627197,969.3561757400689" class="er relationshipLine"></path><path style="stroke: gray; fill: none;" marker-start="url(#ZERO_OR_MORE_START)" marker-end="url(#ONLY_ONE_END)" d="M325.72856521606445,582.6012581231543L341.9178514480591,597.3010489445882C358.1071376800537,612.0008397660221,390.48571014404297,641.40042140889,422.024988831374,668.1002122303239C453.56426751870504,694.8000030517578,484.26425242937785,718.8000030517578,499.61424488471425,730.8000030517578L514.9642373400507,742.8000030517578" class="er relationshipLine"></path><path style="stroke: gray; fill: none;" marker-start="url(#ZERO_OR_MORE_START)" marker-end="url(#ONLY_ONE_END)" d="M233.23150018690953,620.8000030517578L229.78100295065948,629.1333363850912C226.33050571440944,637.4666697184244,219.4295112419093,654.1333363850912,215.97901400565922,672.6333363850912C212.52851676940918,691.1333363850912,212.52851676940918,711.4666697184244,212.52851676940918,721.6333363850912L212.52851676940918,731.8000030517578" class="er relationshipLine"></path><path style="stroke: gray; fill: none;" marker-start="url(#ZERO_OR_MORE_START)" marker-end="url(#ONLY_ONE_END)" d="M299.895556185106,324.89999771118164L285.3343829491565,336.2833309173584C270.77320971320705,347.66666412353516,241.65086324130812,370.4333305358887,230.5401872416087,390.14999707539874C219.4295112419093,409.8666636149089,226.33050571440944,426.5333302815755,229.78100295065948,434.8666636149089L233.23150018690953,443.1999969482422" class="er relationshipLine"></path><path style="stroke: gray; fill: none;" marker-start="url(#ZERO_OR_MORE_START)" marker-end="url(#ONLY_ONE_END)" d="M397.8642826080322,313.47654452289515L423.3416630427043,326.76378659378634C448.8190434773763,340.0510286646775,499.7738043467204,366.6255128064599,525.2511847813925,403.0460887193106C550.7285652160645,439.46666463216144,550.7285652160645,485.73333231608075,550.7285652160645,532C550.7285652160645,578.2666676839193,550.7285652160645,624.5333353678385,551.5759924316942,659.6666692097982C552.423419647324,694.8000030517578,554.1182740785833,718.8000030517578,554.9657012942131,730.8000030517578L555.8131285098428,742.8000030517578" class="er relationshipLine"></path><path style="stroke: gray; fill: none;" marker-start="url(#ZERO_OR_MORE_START)" marker-end="url(#ONLY_ONE_END)" d="M720.14156088353,569.5L713.1508532722859,586.3833338419596C706.1601456610415,603.2666676839193,692.178730438553,637.0333353678385,671.5777467250713,665.9166692097982C650.9767630115895,694.8000030517578,623.7562108071145,718.8000030517578,610.145934704877,730.8000030517578L596.5356586026395,742.8000030517578" class="er relationshipLine"></path><path style="stroke: gray; fill: none;" marker-start="url(#ZERO_OR_MORE_START)" marker-end="url(#ONLY_ONE_END)" d="M749.1774436827856,569.5L755.2593361434305,586.3833338419596C761.3412286040754,603.2666676839193,773.5050135253654,637.0333353678385,779.5869059860103,665.9166692097982C785.6687984466553,694.8000030517578,785.6687984466553,718.8000030517578,785.6687984466553,730.8000030517578L785.6687984466553,742.8000030517578" class="er relationshipLine"></path><path style="stroke: gray; fill: none;" marker-start="url(#ZERO_OR_MORE_START)" marker-end="url(#ONLY_ONE_END)" d="M935.6687984466553,794.427558712589L889.8354651133219,809.0896325148038C844.0021317799886,823.7517063170189,752.3354651133219,853.0758539214489,649.723998705546,883.1144473224717C547.1125322977701,913.1530407234947,433.5562661488851,943.9060799211106,376.77813307444256,959.2825995199186L320,974.6591191187265" class="er relationshipLine"></path><path style="stroke: gray; fill: none;" marker-start="url(#ZERO_OR_MORE_START)" marker-end="url(#ONLY_ONE_END)" d="M1044.138384115879,832.4000015258789L1052.014880707019,840.7333348592123C1059.8913772981593,849.0666681925455,1075.6443704804394,865.7333348592123,1077.8497895259586,886.0666681925455C1080.055208571478,906.4000015258789,1068.713053480236,930.4000015258789,1063.0419759346153,942.4000015258789L1057.3708983889944,954.4000015258789" class="er relationshipLine"></path><path style="stroke: gray; fill: none;" marker-start="url(#ZERO_OR_MORE_START)" marker-end="url(#ONLY_ONE_END)" d="M740.3927993774414,306.6608093145115L687.4713799158732,321.0840072534666C634.549960454305,335.50720519242174,528.7071215311686,364.35360107033193,459.5964158376058,393.47658983072097C390.48571014404297,422.59957859111006,358.1071376800537,451.999160233978,341.9178514480591,466.6989510554119L325.72856521606445,481.3987418768458" class="er relationshipLine"></path><path style="stroke: gray; fill: none;" marker-start="url(#ZERO_OR_MORE_START)" marker-end="url(#ONLY_ONE_END)" d="M881.7358627319336,328.86244022323365L900.0127795537313,339.5853663440684C918.2896963755289,350.30829246490316,954.8435300191244,371.7541447065726,973.120446840922,405.610404669367C991.3973636627197,439.46666463216144,991.3973636627197,485.73333231608075,991.3973636627197,532C991.3973636627197,578.2666676839193,991.3973636627197,624.5333353678385,991.3973636627197,656.0000025431315C991.3973636627197,687.4666697184244,991.3973636627197,704.1333363850912,991.3973636627197,712.4666697184244L991.3973636627197,720.8000030517578" class="er relationshipLine"></path><path style="stroke: gray; fill: none;" marker-start="url(#ZERO_OR_MORE_START)" marker-end="url(#ONLY_ONE_END)" d="M650.7285652160645,110.4058592299891L633.5845181147257,122.2715491040111C616.4404710133871,134.1372389780331,582.1523768107096,157.8686187260771,565.008329709371,178.06764193343244C547.8642826080322,198.26666514078775,547.8642826080322,214.93333180745444,547.8642826080322,223.26666514078775L547.8642826080322,231.5999984741211" class="er relationshipLine"></path><path style="stroke: gray; fill: none;" marker-start="url(#ZERO_OR_MORE_START)" marker-end="url(#ONLY_ONE_END)" d="M750.7285652160645,123.74456119886516L760.7845261891683,133.38713407807447C770.8404871622721,143.0297069572838,790.9524091084799,162.31485271570244,801.0083700815836,180.29075892824508C811.0643310546875,198.26666514078775,811.0643310546875,214.93333180745444,811.0643310546875,223.26666514078775L811.0643310546875,231.5999984741211" class="er relationshipLine"></path><g transform="translate(220,932.4000015258789 )" id="entity-Address-e4af1aca-922a-404c-9d91-e57b783bfc53"><rect height="111.60000038146973" width="100" y="0" x="0" class="er entityBox"></rect><text style="dominant-baseline: middle; text-anchor: middle; font-size: 12px;" transform="translate(50,11.800000190734863)" y="0" x="0" id="text-entity-Address-e4af1aca-922a-404c-9d91-e57b783bfc53" class="er entityLabel">Address</text><rect height="22" width="46.75429725646973" y="23.600000381469727" x="0" class="er attributeBoxOdd"></rect><text style="dominant-baseline: middle; font-size: 10.2px;" transform="translate(5,34.60000038146973)" y="0" x="0" id="text-entity-Address-e4af1aca-922a-404c-9d91-e57b783bfc53-attr-1-type" class="er entityLabel">Int</text><rect height="22" width="53.24570274353027" y="23.600000381469727" x="46.75429725646973" class="er attributeBoxOdd"></rect><text style="dominant-baseline: middle; font-size: 10.2px;" transform="translate(51.75429725646973,34.60000038146973)" y="0" x="0" id="text-entity-Address-e4af1aca-922a-404c-9d91-e57b783bfc53-attr-1-name" class="er entityLabel">id</text><rect height="22" width="46.75429725646973" y="45.60000038146973" x="0" class="er attributeBoxEven"></rect><text style="dominant-baseline: middle; font-size: 10.2px;" transform="translate(5,56.60000038146973)" y="0" x="0" id="text-entity-Address-e4af1aca-922a-404c-9d91-e57b783bfc53-attr-2-type" class="er entityLabel">String</text><rect height="22" width="53.24570274353027" y="45.60000038146973" x="46.75429725646973" class="er attributeBoxEven"></rect><text style="dominant-baseline: middle; font-size: 10.2px;" transform="translate(51.75429725646973,56.60000038146973)" y="0" x="0" id="text-entity-Address-e4af1aca-922a-404c-9d91-e57b783bfc53-attr-2-name" class="er entityLabel">ward</text><rect height="22" width="46.75429725646973" y="67.60000038146973" x="0" class="er attributeBoxOdd"></rect><text style="dominant-baseline: middle; font-size: 10.2px;" transform="translate(5,78.60000038146973)" y="0" x="0" id="text-entity-Address-e4af1aca-922a-404c-9d91-e57b783bfc53-attr-3-type" class="er entityLabel">String</text><rect height="22" width="53.24570274353027" y="67.60000038146973" x="46.75429725646973" class="er attributeBoxOdd"></rect><text style="dominant-baseline: middle; font-size: 10.2px;" transform="translate(51.75429725646973,78.60000038146973)" y="0" x="0" id="text-entity-Address-e4af1aca-922a-404c-9d91-e57b783bfc53-attr-3-name" class="er entityLabel">district</text><rect height="22" width="46.75429725646973" y="89.60000038146973" x="0" class="er attributeBoxEven"></rect><text style="dominant-baseline: middle; font-size: 10.2px;" transform="translate(5,100.60000038146973)" y="0" x="0" id="text-entity-Address-e4af1aca-922a-404c-9d91-e57b783bfc53-attr-4-type" class="er entityLabel">String</text><rect height="22" width="53.24570274353027" y="89.60000038146973" x="46.75429725646973" class="er attributeBoxEven"></rect><text style="dominant-baseline: middle; font-size: 10.2px;" transform="translate(51.75429725646973,100.60000038146973)" y="0" x="0" id="text-entity-Address-e4af1aca-922a-404c-9d91-e57b783bfc53-attr-4-name" class="er entityLabel">city</text></g><g transform="translate(991.3973636627197,954.4000015258789 )" id="entity-Bank-935e563a-89ee-4ccc-aa2b-2059f87aa865"><rect height="67.60000038146973" width="100" y="0" x="0" class="er entityBox"></rect><text style="dominant-baseline: middle; text-anchor: middle; font-size: 12px;" transform="translate(50,11.800000190734863)" y="0" x="0" id="text-entity-Bank-935e563a-89ee-4ccc-aa2b-2059f87aa865" class="er entityLabel">Bank</text><rect height="22" width="50.99858379364014" y="23.600000381469727" x="0" class="er attributeBoxOdd"></rect><text style="dominant-baseline: middle; font-size: 10.2px;" transform="translate(5,34.60000038146973)" y="0" x="0" id="text-entity-Bank-935e563a-89ee-4ccc-aa2b-2059f87aa865-attr-1-type" class="er entityLabel">String</text><rect height="22" width="49.00141620635986" y="23.600000381469727" x="50.99858379364014" class="er attributeBoxOdd"></rect><text style="dominant-baseline: middle; font-size: 10.2px;" transform="translate(55.99858379364014,34.60000038146973)" y="0" x="0" id="text-entity-Bank-935e563a-89ee-4ccc-aa2b-2059f87aa865-attr-1-name" class="er entityLabel">id</text><rect height="22" width="50.99858379364014" y="45.60000038146973" x="0" class="er attributeBoxEven"></rect><text style="dominant-baseline: middle; font-size: 10.2px;" transform="translate(5,56.60000038146973)" y="0" x="0" id="text-entity-Bank-935e563a-89ee-4ccc-aa2b-2059f87aa865-attr-2-type" class="er entityLabel">String</text><rect height="22" width="49.00141620635986" y="45.60000038146973" x="50.99858379364014" class="er attributeBoxEven"></rect><text style="dominant-baseline: middle; font-size: 10.2px;" transform="translate(55.99858379364014,56.60000038146973)" y="0" x="0" id="text-entity-Bank-935e563a-89ee-4ccc-aa2b-2059f87aa865-attr-2-name" class="er entityLabel">name</text></g><g transform="translate(20,943.4000015258789 )" id="entity-Mail-3af47798-c50d-4f90-98d2-a687f5c3d127"><rect height="89.60000038146973" width="100" y="0" x="0" class="er entityBox"></rect><text style="dominant-baseline: middle; text-anchor: middle; font-size: 12px;" transform="translate(50,11.800000190734863)" y="0" x="0" id="text-entity-Mail-3af47798-c50d-4f90-98d2-a687f5c3d127" class="er entityLabel">Mail</text><rect height="22" width="45.45937538146973" y="23.600000381469727" x="0" class="er attributeBoxOdd"></rect><text style="dominant-baseline: middle; font-size: 10.2px;" transform="translate(5,34.60000038146973)" y="0" x="0" id="text-entity-Mail-3af47798-c50d-4f90-98d2-a687f5c3d127-attr-1-type" class="er entityLabel">Int</text><rect height="22" width="54.54062461853027" y="23.600000381469727" x="45.45937538146973" class="er attributeBoxOdd"></rect><text style="dominant-baseline: middle; font-size: 10.2px;" transform="translate(50.45937538146973,34.60000038146973)" y="0" x="0" id="text-entity-Mail-3af47798-c50d-4f90-98d2-a687f5c3d127-attr-1-name" class="er entityLabel">id</text><rect height="22" width="45.45937538146973" y="45.60000038146973" x="0" class="er attributeBoxEven"></rect><text style="dominant-baseline: middle; font-size: 10.2px;" transform="translate(5,56.60000038146973)" y="0" x="0" id="text-entity-Mail-3af47798-c50d-4f90-98d2-a687f5c3d127-attr-2-type" class="er entityLabel">String</text><rect height="22" width="54.54062461853027" y="45.60000038146973" x="45.45937538146973" class="er attributeBoxEven"></rect><text style="dominant-baseline: middle; font-size: 10.2px;" transform="translate(50.45937538146973,56.60000038146973)" y="0" x="0" id="text-entity-Mail-3af47798-c50d-4f90-98d2-a687f5c3d127-attr-2-name" class="er entityLabel">subject</text><rect height="22" width="45.45937538146973" y="67.60000038146973" x="0" class="er attributeBoxOdd"></rect><text style="dominant-baseline: middle; font-size: 10.2px;" transform="translate(5,78.60000038146973)" y="0" x="0" id="text-entity-Mail-3af47798-c50d-4f90-98d2-a687f5c3d127-attr-3-type" class="er entityLabel">String</text><rect height="22" width="54.54062461853027" y="67.60000038146973" x="45.45937538146973" class="er attributeBoxOdd"></rect><text style="dominant-baseline: middle; font-size: 10.2px;" transform="translate(50.45937538146973,78.60000038146973)" y="0" x="0" id="text-entity-Mail-3af47798-c50d-4f90-98d2-a687f5c3d127-attr-3-name" class="er entityLabel">content</text></g><g transform="translate(156.79995155334473,731.8000030517578 )" id="entity-Tenant-d44a8bc2-0a56-4acb-a1c0-4f55b8bd52be"><rect height="89.60000038146973" width="111.4571304321289" y="0" x="0" class="er entityBox"></rect><text style="dominant-baseline: middle; text-anchor: middle; font-size: 12px;" transform="translate(55.72856521606445,11.800000190734863)" y="0" x="0" id="text-entity-Tenant-d44a8bc2-0a56-4acb-a1c0-4f55b8bd52be" class="er entityLabel">Tenant</text><rect height="22" width="36.99609375" y="23.600000381469727" x="0" class="er attributeBoxOdd"></rect><text style="dominant-baseline: middle; font-size: 10.2px;" transform="translate(5,34.60000038146973)" y="0" x="0" id="text-entity-Tenant-d44a8bc2-0a56-4acb-a1c0-4f55b8bd52be-attr-1-type" class="er entityLabel">Int</text><rect height="22" width="74.4610366821289" y="23.600000381469727" x="36.99609375" class="er attributeBoxOdd"></rect><text style="dominant-baseline: middle; font-size: 10.2px;" transform="translate(41.99609375,34.60000038146973)" y="0" x="0" id="text-entity-Tenant-d44a8bc2-0a56-4acb-a1c0-4f55b8bd52be-attr-1-name" class="er entityLabel">id</text><rect height="22" width="36.99609375" y="45.60000038146973" x="0" class="er attributeBoxEven"></rect><text style="dominant-baseline: middle; font-size: 10.2px;" transform="translate(5,56.60000038146973)" y="0" x="0" id="text-entity-Tenant-d44a8bc2-0a56-4acb-a1c0-4f55b8bd52be-attr-2-type" class="er entityLabel">String</text><rect height="22" width="74.4610366821289" y="45.60000038146973" x="36.99609375" class="er attributeBoxEven"></rect><text style="dominant-baseline: middle; font-size: 10.2px;" transform="translate(41.99609375,56.60000038146973)" y="0" x="0" id="text-entity-Tenant-d44a8bc2-0a56-4acb-a1c0-4f55b8bd52be-attr-2-name" class="er entityLabel">name</text><rect height="22" width="36.99609375" y="67.60000038146973" x="0" class="er attributeBoxOdd"></rect><text style="dominant-baseline: middle; font-size: 10.2px;" transform="translate(5,78.60000038146973)" y="0" x="0" id="text-entity-Tenant-d44a8bc2-0a56-4acb-a1c0-4f55b8bd52be-attr-3-type" class="er entityLabel">String</text><rect height="22" width="74.4610366821289" y="67.60000038146973" x="36.99609375" class="er attributeBoxOdd"></rect><text style="dominant-baseline: middle; font-size: 10.2px;" transform="translate(41.99609375,78.60000038146973)" y="0" x="0" id="text-entity-Tenant-d44a8bc2-0a56-4acb-a1c0-4f55b8bd52be-attr-3-name" class="er entityLabel">phoneNumber</text></g><g transform="translate(508.2000484466553,742.8000030517578 )" id="entity-Role-ed3e4994-6fb4-4855-a728-ac47fa1ab9fc"><rect height="67.60000038146973" width="100" y="0" x="0" class="er entityBox"></rect><text style="dominant-baseline: middle; text-anchor: middle; font-size: 12px;" transform="translate(50,11.800000190734863)" y="0" x="0" id="text-entity-Role-ed3e4994-6fb4-4855-a728-ac47fa1ab9fc" class="er entityLabel">Role</text><rect height="22" width="50.99858379364014" y="23.600000381469727" x="0" class="er attributeBoxOdd"></rect><text style="dominant-baseline: middle; font-size: 10.2px;" transform="translate(5,34.60000038146973)" y="0" x="0" id="text-entity-Role-ed3e4994-6fb4-4855-a728-ac47fa1ab9fc-attr-1-type" class="er entityLabel">Int</text><rect height="22" width="49.00141620635986" y="23.600000381469727" x="50.99858379364014" class="er attributeBoxOdd"></rect><text style="dominant-baseline: middle; font-size: 10.2px;" transform="translate(55.99858379364014,34.60000038146973)" y="0" x="0" id="text-entity-Role-ed3e4994-6fb4-4855-a728-ac47fa1ab9fc-attr-1-name" class="er entityLabel">id</text><rect height="22" width="50.99858379364014" y="45.60000038146973" x="0" class="er attributeBoxEven"></rect><text style="dominant-baseline: middle; font-size: 10.2px;" transform="translate(5,56.60000038146973)" y="0" x="0" id="text-entity-Role-ed3e4994-6fb4-4855-a728-ac47fa1ab9fc-attr-2-type" class="er entityLabel">String</text><rect height="22" width="49.00141620635986" y="45.60000038146973" x="50.99858379364014" class="er attributeBoxEven"></rect><text style="dominant-baseline: middle; font-size: 10.2px;" transform="translate(55.99858379364014,56.60000038146973)" y="0" x="0" id="text-entity-Role-ed3e4994-6fb4-4855-a728-ac47fa1ab9fc-attr-2-name" class="er entityLabel">name</text></g><g transform="translate(735.6687984466553,742.8000030517578 )" id="entity-Permission-14e6fc83-a185-4404-9fee-9495009f660b"><rect height="67.60000038146973" width="100" y="0" x="0" class="er entityBox"></rect><text style="dominant-baseline: middle; text-anchor: middle; font-size: 12px;" transform="translate(50,11.800000190734863)" y="0" x="0" id="text-entity-Permission-14e6fc83-a185-4404-9fee-9495009f660b" class="er entityLabel">Permission</text><rect height="22" width="60.25229549407959" y="23.600000381469727" x="0" class="er attributeBoxOdd"></rect><text style="dominant-baseline: middle; font-size: 10.2px;" transform="translate(5,34.60000038146973)" y="0" x="0" id="text-entity-Permission-14e6fc83-a185-4404-9fee-9495009f660b-attr-1-type" class="er entityLabel">Int</text><rect height="22" width="39.74770450592041" y="23.600000381469727" x="60.25229549407959" class="er attributeBoxOdd"></rect><text style="dominant-baseline: middle; font-size: 10.2px;" transform="translate(65.25229549407959,34.60000038146973)" y="0" x="0" id="text-entity-Permission-14e6fc83-a185-4404-9fee-9495009f660b-attr-1-name" class="er entityLabel">id</text><rect height="22" width="60.25229549407959" y="45.60000038146973" x="0" class="er attributeBoxEven"></rect><text style="dominant-baseline: middle; font-size: 10.2px;" transform="translate(5,56.60000038146973)" y="0" x="0" id="text-entity-Permission-14e6fc83-a185-4404-9fee-9495009f660b-attr-2-type" class="er entityLabel">RoleName</text><rect height="22" width="39.74770450592041" y="45.60000038146973" x="60.25229549407959" class="er attributeBoxEven"></rect><text style="dominant-baseline: middle; font-size: 10.2px;" transform="translate(65.25229549407959,56.60000038146973)" y="0" x="0" id="text-entity-Permission-14e6fc83-a185-4404-9fee-9495009f660b-attr-2-name" class="er entityLabel">name</text></g><g transform="translate(214.27143478393555,443.1999969482422 )" id="entity-User-992118c0-ae4d-4842-b7b4-0349d0c7898f"><rect height="177.60000038146973" width="111.4571304321289" y="0" x="0" class="er entityBox"></rect><text style="dominant-baseline: middle; text-anchor: middle; font-size: 12px;" transform="translate(55.72856521606445,11.800000190734863)" y="0" x="0" id="text-entity-User-992118c0-ae4d-4842-b7b4-0349d0c7898f" class="er entityLabel">User</text><rect height="22" width="36.99609375" y="23.600000381469727" x="0" class="er attributeBoxOdd"></rect><text style="dominant-baseline: middle; font-size: 10.2px;" transform="translate(5,34.60000038146973)" y="0" x="0" id="text-entity-User-992118c0-ae4d-4842-b7b4-0349d0c7898f-attr-1-type" class="er entityLabel">Int</text><rect height="22" width="74.4610366821289" y="23.600000381469727" x="36.99609375" class="er attributeBoxOdd"></rect><text style="dominant-baseline: middle; font-size: 10.2px;" transform="translate(41.99609375,34.60000038146973)" y="0" x="0" id="text-entity-User-992118c0-ae4d-4842-b7b4-0349d0c7898f-attr-1-name" class="er entityLabel">id</text><rect height="22" width="36.99609375" y="45.60000038146973" x="0" class="er attributeBoxEven"></rect><text style="dominant-baseline: middle; font-size: 10.2px;" transform="translate(5,56.60000038146973)" y="0" x="0" id="text-entity-User-992118c0-ae4d-4842-b7b4-0349d0c7898f-attr-2-type" class="er entityLabel">String</text><rect height="22" width="74.4610366821289" y="45.60000038146973" x="36.99609375" class="er attributeBoxEven"></rect><text style="dominant-baseline: middle; font-size: 10.2px;" transform="translate(41.99609375,56.60000038146973)" y="0" x="0" id="text-entity-User-992118c0-ae4d-4842-b7b4-0349d0c7898f-attr-2-name" class="er entityLabel">username</text><rect height="22" width="36.99609375" y="67.60000038146973" x="0" class="er attributeBoxOdd"></rect><text style="dominant-baseline: middle; font-size: 10.2px;" transform="translate(5,78.60000038146973)" y="0" x="0" id="text-entity-User-992118c0-ae4d-4842-b7b4-0349d0c7898f-attr-3-type" class="er entityLabel">String</text><rect height="22" width="74.4610366821289" y="67.60000038146973" x="36.99609375" class="er attributeBoxOdd"></rect><text style="dominant-baseline: middle; font-size: 10.2px;" transform="translate(41.99609375,78.60000038146973)" y="0" x="0" id="text-entity-User-992118c0-ae4d-4842-b7b4-0349d0c7898f-attr-3-name" class="er entityLabel">password</text><rect height="22" width="36.99609375" y="89.60000038146973" x="0" class="er attributeBoxEven"></rect><text style="dominant-baseline: middle; font-size: 10.2px;" transform="translate(5,100.60000038146973)" y="0" x="0" id="text-entity-User-992118c0-ae4d-4842-b7b4-0349d0c7898f-attr-4-type" class="er entityLabel">String</text><rect height="22" width="74.4610366821289" y="89.60000038146973" x="36.99609375" class="er attributeBoxEven"></rect><text style="dominant-baseline: middle; font-size: 10.2px;" transform="translate(41.99609375,100.60000038146973)" y="0" x="0" id="text-entity-User-992118c0-ae4d-4842-b7b4-0349d0c7898f-attr-4-name" class="er entityLabel">fullName</text><rect height="22" width="36.99609375" y="111.60000038146973" x="0" class="er attributeBoxOdd"></rect><text style="dominant-baseline: middle; font-size: 10.2px;" transform="translate(5,122.60000038146973)" y="0" x="0" id="text-entity-User-992118c0-ae4d-4842-b7b4-0349d0c7898f-attr-5-type" class="er entityLabel">String</text><rect height="22" width="74.4610366821289" y="111.60000038146973" x="36.99609375" class="er attributeBoxOdd"></rect><text style="dominant-baseline: middle; font-size: 10.2px;" transform="translate(41.99609375,122.60000038146973)" y="0" x="0" id="text-entity-User-992118c0-ae4d-4842-b7b4-0349d0c7898f-attr-5-name" class="er entityLabel">email</text><rect height="22" width="36.99609375" y="133.60000038146973" x="0" class="er attributeBoxEven"></rect><text style="dominant-baseline: middle; font-size: 10.2px;" transform="translate(5,144.60000038146973)" y="0" x="0" id="text-entity-User-992118c0-ae4d-4842-b7b4-0349d0c7898f-attr-6-type" class="er entityLabel">String</text><rect height="22" width="74.4610366821289" y="133.60000038146973" x="36.99609375" class="er attributeBoxEven"></rect><text style="dominant-baseline: middle; font-size: 10.2px;" transform="translate(41.99609375,144.60000038146973)" y="0" x="0" id="text-entity-User-992118c0-ae4d-4842-b7b4-0349d0c7898f-attr-6-name" class="er entityLabel">phoneNumber</text><rect height="22" width="36.99609375" y="155.60000038146973" x="0" class="er attributeBoxOdd"></rect><text style="dominant-baseline: middle; font-size: 10.2px;" transform="translate(5,166.60000038146973)" y="0" x="0" id="text-entity-User-992118c0-ae4d-4842-b7b4-0349d0c7898f-attr-7-type" class="er entityLabel">String</text><rect height="22" width="74.4610366821289" y="155.60000038146973" x="36.99609375" class="er attributeBoxOdd"></rect><text style="dominant-baseline: middle; font-size: 10.2px;" transform="translate(41.99609375,166.60000038146973)" y="0" x="0" id="text-entity-User-992118c0-ae4d-4842-b7b4-0349d0c7898f-attr-7-name" class="er entityLabel">refreshToken</text></g><g transform="translate(297.8642826080322,249.89999771118164 )" id="entity-UserRole-22caac55-dcc6-4c64-9af5-21000b0357d2"><rect height="75" width="100" y="0" x="0" class="er entityBox"></rect><text style="dominant-baseline: middle; text-anchor: middle; font-size: 12px;" transform="translate(50,37.5)" y="0" x="0" id="text-entity-UserRole-22caac55-dcc6-4c64-9af5-21000b0357d2" class="er entityLabel">UserRole</text></g><g transform="translate(680.7312984466553,494.5 )" id="entity-RolePermission-0eb26c39-0e06-4e3d-ba7f-292353491988"><rect height="75" width="109.875" y="0" x="0" class="er entityBox"></rect><text style="dominant-baseline: middle; text-anchor: middle; font-size: 12px;" transform="translate(54.9375,37.5)" y="0" x="0" id="text-entity-RolePermission-0eb26c39-0e06-4e3d-ba7f-292353491988" class="er entityLabel">RolePermission</text></g><g transform="translate(935.6687984466553,720.8000030517578 )" id="entity-Customer-d6abd86e-2bc0-48f6-afa1-9de3c76fe68d"><rect height="111.60000038146973" width="111.4571304321289" y="0" x="0" class="er entityBox"></rect><text style="dominant-baseline: middle; text-anchor: middle; font-size: 12px;" transform="translate(55.72856521606445,11.800000190734863)" y="0" x="0" id="text-entity-Customer-d6abd86e-2bc0-48f6-afa1-9de3c76fe68d" class="er entityLabel">Customer</text><rect height="22" width="36.99609375" y="23.600000381469727" x="0" class="er attributeBoxOdd"></rect><text style="dominant-baseline: middle; font-size: 10.2px;" transform="translate(5,34.60000038146973)" y="0" x="0" id="text-entity-Customer-d6abd86e-2bc0-48f6-afa1-9de3c76fe68d-attr-1-type" class="er entityLabel">Int</text><rect height="22" width="74.4610366821289" y="23.600000381469727" x="36.99609375" class="er attributeBoxOdd"></rect><text style="dominant-baseline: middle; font-size: 10.2px;" transform="translate(41.99609375,34.60000038146973)" y="0" x="0" id="text-entity-Customer-d6abd86e-2bc0-48f6-afa1-9de3c76fe68d-attr-1-name" class="er entityLabel">id</text><rect height="22" width="36.99609375" y="45.60000038146973" x="0" class="er attributeBoxEven"></rect><text style="dominant-baseline: middle; font-size: 10.2px;" transform="translate(5,56.60000038146973)" y="0" x="0" id="text-entity-Customer-d6abd86e-2bc0-48f6-afa1-9de3c76fe68d-attr-2-type" class="er entityLabel">String</text><rect height="22" width="74.4610366821289" y="45.60000038146973" x="36.99609375" class="er attributeBoxEven"></rect><text style="dominant-baseline: middle; font-size: 10.2px;" transform="translate(41.99609375,56.60000038146973)" y="0" x="0" id="text-entity-Customer-d6abd86e-2bc0-48f6-afa1-9de3c76fe68d-attr-2-name" class="er entityLabel">name</text><rect height="22" width="36.99609375" y="67.60000038146973" x="0" class="er attributeBoxOdd"></rect><text style="dominant-baseline: middle; font-size: 10.2px;" transform="translate(5,78.60000038146973)" y="0" x="0" id="text-entity-Customer-d6abd86e-2bc0-48f6-afa1-9de3c76fe68d-attr-3-type" class="er entityLabel">String</text><rect height="22" width="74.4610366821289" y="67.60000038146973" x="36.99609375" class="er attributeBoxOdd"></rect><text style="dominant-baseline: middle; font-size: 10.2px;" transform="translate(41.99609375,78.60000038146973)" y="0" x="0" id="text-entity-Customer-d6abd86e-2bc0-48f6-afa1-9de3c76fe68d-attr-3-name" class="er entityLabel">email</text><rect height="22" width="36.99609375" y="89.60000038146973" x="0" class="er attributeBoxEven"></rect><text style="dominant-baseline: middle; font-size: 10.2px;" transform="translate(5,100.60000038146973)" y="0" x="0" id="text-entity-Customer-d6abd86e-2bc0-48f6-afa1-9de3c76fe68d-attr-4-type" class="er entityLabel">String</text><rect height="22" width="74.4610366821289" y="89.60000038146973" x="36.99609375" class="er attributeBoxEven"></rect><text style="dominant-baseline: middle; font-size: 10.2px;" transform="translate(41.99609375,100.60000038146973)" y="0" x="0" id="text-entity-Customer-d6abd86e-2bc0-48f6-afa1-9de3c76fe68d-attr-4-name" class="er entityLabel">phoneNumber</text></g><g transform="translate(497.8642826080322,231.5999984741211 )" id="entity-Product-58ba7503-ebe6-4e6d-8317-f25d309c7db3"><rect height="111.60000038146973" width="100" y="0" x="0" class="er entityBox"></rect><text style="dominant-baseline: middle; text-anchor: middle; font-size: 12px;" transform="translate(50,11.800000190734863)" y="0" x="0" id="text-entity-Product-58ba7503-ebe6-4e6d-8317-f25d309c7db3" class="er entityLabel">Product</text><rect height="22" width="37.99457931518555" y="23.600000381469727" x="0" class="er attributeBoxOdd"></rect><text style="dominant-baseline: middle; font-size: 10.2px;" transform="translate(5,34.60000038146973)" y="0" x="0" id="text-entity-Product-58ba7503-ebe6-4e6d-8317-f25d309c7db3-attr-1-type" class="er entityLabel">Int</text><rect height="22" width="62.00542068481445" y="23.600000381469727" x="37.99457931518555" class="er attributeBoxOdd"></rect><text style="dominant-baseline: middle; font-size: 10.2px;" transform="translate(42.99457931518555,34.60000038146973)" y="0" x="0" id="text-entity-Product-58ba7503-ebe6-4e6d-8317-f25d309c7db3-attr-1-name" class="er entityLabel">id</text><rect height="22" width="37.99457931518555" y="45.60000038146973" x="0" class="er attributeBoxEven"></rect><text style="dominant-baseline: middle; font-size: 10.2px;" transform="translate(5,56.60000038146973)" y="0" x="0" id="text-entity-Product-58ba7503-ebe6-4e6d-8317-f25d309c7db3-attr-2-type" class="er entityLabel">String</text><rect height="22" width="62.00542068481445" y="45.60000038146973" x="37.99457931518555" class="er attributeBoxEven"></rect><text style="dominant-baseline: middle; font-size: 10.2px;" transform="translate(42.99457931518555,56.60000038146973)" y="0" x="0" id="text-entity-Product-58ba7503-ebe6-4e6d-8317-f25d309c7db3-attr-2-name" class="er entityLabel">name</text><rect height="22" width="37.99457931518555" y="67.60000038146973" x="0" class="er attributeBoxOdd"></rect><text style="dominant-baseline: middle; font-size: 10.2px;" transform="translate(5,78.60000038146973)" y="0" x="0" id="text-entity-Product-58ba7503-ebe6-4e6d-8317-f25d309c7db3-attr-3-type" class="er entityLabel">String</text><rect height="22" width="62.00542068481445" y="67.60000038146973" x="37.99457931518555" class="er attributeBoxOdd"></rect><text style="dominant-baseline: middle; font-size: 10.2px;" transform="translate(42.99457931518555,78.60000038146973)" y="0" x="0" id="text-entity-Product-58ba7503-ebe6-4e6d-8317-f25d309c7db3-attr-3-name" class="er entityLabel">description</text><rect height="22" width="37.99457931518555" y="89.60000038146973" x="0" class="er attributeBoxEven"></rect><text style="dominant-baseline: middle; font-size: 10.2px;" transform="translate(5,100.60000038146973)" y="0" x="0" id="text-entity-Product-58ba7503-ebe6-4e6d-8317-f25d309c7db3-attr-4-type" class="er entityLabel">Float</text><rect height="22" width="62.00542068481445" y="89.60000038146973" x="37.99457931518555" class="er attributeBoxEven"></rect><text style="dominant-baseline: middle; font-size: 10.2px;" transform="translate(42.99457931518555,100.60000038146973)" y="0" x="0" id="text-entity-Product-58ba7503-ebe6-4e6d-8317-f25d309c7db3-attr-4-name" class="er entityLabel">price</text></g><g transform="translate(740.3927993774414,231.5999984741211 )" id="entity-Invoice-86df7755-7d05-4b68-92dc-fc9be935e784"><rect height="111.60000038146973" width="141.34306716918945" y="0" x="0" class="er entityBox"></rect><text style="dominant-baseline: middle; text-anchor: middle; font-size: 12px;" transform="translate(70.67153358459473,11.800000190734863)" y="0" x="0" id="text-entity-Invoice-86df7755-7d05-4b68-92dc-fc9be935e784" class="er entityLabel">Invoice</text><rect height="22" width="53.69560623168945" y="23.600000381469727" x="0" class="er attributeBoxOdd"></rect><text style="dominant-baseline: middle; font-size: 10.2px;" transform="translate(5,34.60000038146973)" y="0" x="0" id="text-entity-Invoice-86df7755-7d05-4b68-92dc-fc9be935e784-attr-1-type" class="er entityLabel">Int</text><rect height="22" width="87.6474609375" y="23.600000381469727" x="53.69560623168945" class="er attributeBoxOdd"></rect><text style="dominant-baseline: middle; font-size: 10.2px;" transform="translate(58.69560623168945,34.60000038146973)" y="0" x="0" id="text-entity-Invoice-86df7755-7d05-4b68-92dc-fc9be935e784-attr-1-name" class="er entityLabel">id</text><rect height="22" width="53.69560623168945" y="45.60000038146973" x="0" class="er attributeBoxEven"></rect><text style="dominant-baseline: middle; font-size: 10.2px;" transform="translate(5,56.60000038146973)" y="0" x="0" id="text-entity-Invoice-86df7755-7d05-4b68-92dc-fc9be935e784-attr-2-type" class="er entityLabel">Float</text><rect height="22" width="87.6474609375" y="45.60000038146973" x="53.69560623168945" class="er attributeBoxEven"></rect><text style="dominant-baseline: middle; font-size: 10.2px;" transform="translate(58.69560623168945,56.60000038146973)" y="0" x="0" id="text-entity-Invoice-86df7755-7d05-4b68-92dc-fc9be935e784-attr-2-name" class="er entityLabel">total_before_tax</text><rect height="22" width="53.69560623168945" y="67.60000038146973" x="0" class="er attributeBoxOdd"></rect><text style="dominant-baseline: middle; font-size: 10.2px;" transform="translate(5,78.60000038146973)" y="0" x="0" id="text-entity-Invoice-86df7755-7d05-4b68-92dc-fc9be935e784-attr-3-type" class="er entityLabel">Float</text><rect height="22" width="87.6474609375" y="67.60000038146973" x="53.69560623168945" class="er attributeBoxOdd"></rect><text style="dominant-baseline: middle; font-size: 10.2px;" transform="translate(58.69560623168945,78.60000038146973)" y="0" x="0" id="text-entity-Invoice-86df7755-7d05-4b68-92dc-fc9be935e784-attr-3-name" class="er entityLabel">total_after_tax</text><rect height="22" width="53.69560623168945" y="89.60000038146973" x="0" class="er attributeBoxEven"></rect><text style="dominant-baseline: middle; font-size: 10.2px;" transform="translate(5,100.60000038146973)" y="0" x="0" id="text-entity-Invoice-86df7755-7d05-4b68-92dc-fc9be935e784-attr-4-type" class="er entityLabel">DateTime</text><rect height="22" width="87.6474609375" y="89.60000038146973" x="53.69560623168945" class="er attributeBoxEven"></rect><text style="dominant-baseline: middle; font-size: 10.2px;" transform="translate(58.69560623168945,100.60000038146973)" y="0" x="0" id="text-entity-Invoice-86df7755-7d05-4b68-92dc-fc9be935e784-attr-4-name" class="er entityLabel">date</text></g><g transform="translate(650.7285652160645,20 )" id="entity-InvoiceItem-042c5396-e71a-4454-8860-3c4db2e24350"><rect height="111.60000038146973" width="100" y="0" x="0" class="er entityBox"></rect><text style="dominant-baseline: middle; text-anchor: middle; font-size: 12px;" transform="translate(50,11.800000190734863)" y="0" x="0" id="text-entity-InvoiceItem-042c5396-e71a-4454-8860-3c4db2e24350" class="er entityLabel">InvoiceItem</text><rect height="22" width="41.58144474029541" y="23.600000381469727" x="0" class="er attributeBoxOdd"></rect><text style="dominant-baseline: middle; font-size: 10.2px;" transform="translate(5,34.60000038146973)" y="0" x="0" id="text-entity-InvoiceItem-042c5396-e71a-4454-8860-3c4db2e24350-attr-1-type" class="er entityLabel">Int</text><rect height="22" width="58.41855525970459" y="23.600000381469727" x="41.58144474029541" class="er attributeBoxOdd"></rect><text style="dominant-baseline: middle; font-size: 10.2px;" transform="translate(46.58144474029541,34.60000038146973)" y="0" x="0" id="text-entity-InvoiceItem-042c5396-e71a-4454-8860-3c4db2e24350-attr-1-name" class="er entityLabel">id</text><rect height="22" width="41.58144474029541" y="45.60000038146973" x="0" class="er attributeBoxEven"></rect><text style="dominant-baseline: middle; font-size: 10.2px;" transform="translate(5,56.60000038146973)" y="0" x="0" id="text-entity-InvoiceItem-042c5396-e71a-4454-8860-3c4db2e24350-attr-2-type" class="er entityLabel">Float</text><rect height="22" width="58.41855525970459" y="45.60000038146973" x="41.58144474029541" class="er attributeBoxEven"></rect><text style="dominant-baseline: middle; font-size: 10.2px;" transform="translate(46.58144474029541,56.60000038146973)" y="0" x="0" id="text-entity-InvoiceItem-042c5396-e71a-4454-8860-3c4db2e24350-attr-2-name" class="er entityLabel">unitPrice</text><rect height="22" width="41.58144474029541" y="67.60000038146973" x="0" class="er attributeBoxOdd"></rect><text style="dominant-baseline: middle; font-size: 10.2px;" transform="translate(5,78.60000038146973)" y="0" x="0" id="text-entity-InvoiceItem-042c5396-e71a-4454-8860-3c4db2e24350-attr-3-type" class="er entityLabel">Int</text><rect height="22" width="58.41855525970459" y="67.60000038146973" x="41.58144474029541" class="er attributeBoxOdd"></rect><text style="dominant-baseline: middle; font-size: 10.2px;" transform="translate(46.58144474029541,78.60000038146973)" y="0" x="0" id="text-entity-InvoiceItem-042c5396-e71a-4454-8860-3c4db2e24350-attr-3-name" class="er entityLabel">quantity</text><rect height="22" width="41.58144474029541" y="89.60000038146973" x="0" class="er attributeBoxEven"></rect><text style="dominant-baseline: middle; font-size: 10.2px;" transform="translate(5,100.60000038146973)" y="0" x="0" id="text-entity-InvoiceItem-042c5396-e71a-4454-8860-3c4db2e24350-attr-4-type" class="er entityLabel">Float</text><rect height="22" width="58.41855525970459" y="89.60000038146973" x="41.58144474029541" class="er attributeBoxEven"></rect><text style="dominant-baseline: middle; font-size: 10.2px;" transform="translate(46.58144474029541,100.60000038146973)" y="0" x="0" id="text-entity-InvoiceItem-042c5396-e71a-4454-8860-3c4db2e24350-attr-4-name" class="er entityLabel">taxRate</text></g><rect height="13.600000381469727" width="30.232421875" y="862.4766721725464" x="79.56298828125" class="er relationshipLabelBox"></rect><text style="text-anchor: middle; dominant-baseline: middle; font-size: 12px;" y="869.2766723632812" x="94.67919921875" id="rel1" class="er relationshipLabel">email</text><rect height="13.600000381469727" width="40.60000228881836" y="871.8630857467651" x="202.45427131652832" class="er relationshipLabelBox"></rect><text style="text-anchor: middle; dominant-baseline: middle; font-size: 12px;" y="878.6630859375" x="222.7542724609375" id="rel2" class="er relationshipLabel">address</text><rect height="13.600000381469727" width="25.946874618530273" y="854.6208372116089" x="621.3191652297974" class="er relationshipLabelBox"></rect><text style="text-anchor: middle; dominant-baseline: middle; font-size: 12px;" y="861.4208374023438" x="634.2926025390625" id="rel3" class="er relationshipLabel">bank</text><rect height="13.600000381469727" width="21.842578887939453" y="658.2141599655151" x="407.4695796966553" class="er relationshipLabelBox"></rect><text style="text-anchor: middle; dominant-baseline: middle; font-size: 12px;" y="665.01416015625" x="418.390869140625" id="rel4" class="er relationshipLabel">role</text><rect height="13.600000381469727" width="36.32070541381836" y="668.1051511764526" x="197.41409492492676" class="er relationshipLabelBox"></rect><text style="text-anchor: middle; dominant-baseline: middle; font-size: 12px;" y="674.9051513671875" x="215.57444763183594" id="rel5" class="er relationshipLabel">tenant</text><rect height="13.600000381469727" width="23.558984756469727" y="367.31502056121826" x="230.76990032196045" class="er relationshipLabelBox"></rect><text style="text-anchor: middle; dominant-baseline: middle; font-size: 12px;" y="374.1150207519531" x="242.5493927001953" id="rel6" class="er relationshipLabel">user</text><rect height="13.600000381469727" width="21.842578887939453" y="485.240008354187" x="539.1882076263428" class="er relationshipLabelBox"></rect><text style="text-anchor: middle; dominant-baseline: middle; font-size: 12px;" y="492.0400085449219" x="550.1094970703125" id="rel7" class="er relationshipLabel">role</text><rect height="13.600000381469727" width="21.842578887939453" y="658.9056882858276" x="660.806432723999" class="er relationshipLabelBox"></rect><text style="text-anchor: middle; dominant-baseline: middle; font-size: 12px;" y="665.7056884765625" x="671.7277221679688" id="rel8" class="er relationshipLabel">role</text><rect height="13.600000381469727" width="57.41250228881836" y="647.4834470748901" x="748.1839466094971" class="er relationshipLabelBox"></rect><text style="text-anchor: middle; dominant-baseline: middle; font-size: 12px;" y="654.283447265625" x="776.8901977539062" id="rel9" class="er relationshipLabel">permission</text><rect height="13.600000381469727" width="40.60000228881836" y="882.2983884811401" x="608.8718738555908" class="er relationshipLabelBox"></rect><text style="text-anchor: middle; dominant-baseline: middle; font-size: 12px;" y="889.098388671875" x="629.171875" id="rel10" class="er relationshipLabel">address</text><rect height="13.600000381469727" width="25.946874618530273" y="883.0701169967651" x="1065.1342287063599" class="er relationshipLabelBox"></rect><text style="text-anchor: middle; dominant-baseline: middle; font-size: 12px;" y="889.8701171875" x="1078.107666015625" id="rel11" class="er relationshipLabel">bank</text><rect height="13.600000381469727" width="23.558984756469727" y="363.4311399459839" x="510.05351543426514" class="er relationshipLabelBox"></rect><text style="text-anchor: middle; dominant-baseline: middle; font-size: 12px;" y="370.23114013671875" x="521.8330078125" id="rel12" class="er relationshipLabel">user</text><rect height="13.600000381469727" width="50.65859603881836" y="494.6236753463745" x="965.8696765899658" class="er relationshipLabelBox"></rect><text style="text-anchor: middle; dominant-baseline: middle; font-size: 12px;" y="501.4236755371094" x="991.198974609375" id="rel13" class="er relationshipLabel">customer</text><rect height="13.600000381469727" width="42.57265853881836" y="153.19082927703857" x="562.1127796173096" class="er relationshipLabelBox"></rect><text style="text-anchor: middle; dominant-baseline: middle; font-size: 12px;" y="159.99082946777344" x="583.3991088867188" id="rel14" class="er relationshipLabel">product</text><rect height="13.600000381469727" width="38.85820388793945" y="163.85388469696045" x="775.3846187591553" class="er relationshipLabelBox"></rect><text style="text-anchor: middle; dominant-baseline: middle; font-size: 12px;" y="170.6538848876953" x="794.813720703125" id="rel15" class="er relationshipLabel">invoice</text></svg>